<svg width="168" height="48" viewBox="0 0 168 48" fill="none" xmlns="http://www.w3.org/2000/svg">
<path d="M47.4 38V8H52.28V38H47.4ZM64.175 38.52C62.335 38.52 60.655 38.0467 59.135 37.1C57.6283 36.1533 56.4217 34.8867 55.515 33.3C54.6217 31.7 54.175 29.9333 54.175 28C54.175 26.5333 54.435 25.1667 54.955 23.9C55.475 22.62 56.1883 21.5 57.095 20.54C58.015 19.5667 59.0817 18.8067 60.295 18.26C61.5083 17.7133 62.8017 17.44 64.175 17.44C66.015 17.44 67.6883 17.9133 69.195 18.86C70.715 19.8067 71.9217 21.08 72.815 22.68C73.7217 24.28 74.175 26.0533 74.175 28C74.175 29.4533 73.915 30.8133 73.395 32.08C72.875 33.3467 72.155 34.4667 71.235 35.44C70.3283 36.4 69.2683 37.1533 68.055 37.7C66.855 38.2467 65.5617 38.52 64.175 38.52ZM64.175 33.64C65.1483 33.64 66.0217 33.38 66.795 32.86C67.5683 32.34 68.175 31.6533 68.615 30.8C69.0683 29.9467 69.295 29.0133 69.295 28C69.295 26.96 69.0617 26.0133 68.595 25.16C68.1417 24.2933 67.5217 23.6067 66.735 23.1C65.9617 22.58 65.1083 22.32 64.175 22.32C63.215 22.32 62.3483 22.58 61.575 23.1C60.8017 23.62 60.1883 24.3133 59.735 25.18C59.2817 26.0467 59.055 26.9867 59.055 28C59.055 29.0533 59.2883 30.0067 59.755 30.86C60.2217 31.7133 60.8417 32.3933 61.615 32.9C62.4017 33.3933 63.255 33.64 64.175 33.64ZM75.9091 38L75.8891 18H80.7691L80.7891 19.78C81.4691 19.06 82.2824 18.4933 83.2291 18.08C84.1757 17.6533 85.1957 17.44 86.2891 17.44C87.0224 17.44 87.7557 17.5467 88.4891 17.76L86.5691 22.68C86.0624 22.48 85.5557 22.38 85.0491 22.38C84.2624 22.38 83.5424 22.5733 82.8891 22.96C82.2491 23.3333 81.7357 23.8467 81.3491 24.5C80.9757 25.14 80.7891 25.8533 80.7891 26.64V38H75.9091ZM103.235 18H108.115V38.38C108.115 39.82 107.822 41.1267 107.235 42.3C106.649 43.4867 105.849 44.5 104.835 45.34C103.822 46.1933 102.662 46.8467 101.355 47.3C100.049 47.7667 98.6753 48 97.2353 48C95.8353 48 94.4886 47.7133 93.1953 47.14C91.902 46.5667 90.7553 45.78 89.7553 44.78C88.7686 43.7933 88.0153 42.6667 87.4953 41.4L91.9553 39.38C92.222 40.1133 92.622 40.7533 93.1553 41.3C93.702 41.86 94.3286 42.2933 95.0353 42.6C95.742 42.92 96.4753 43.08 97.2353 43.08C98.0086 43.08 98.7486 42.9733 99.4553 42.76C100.175 42.5467 100.822 42.2333 101.395 41.82C101.969 41.42 102.415 40.9267 102.735 40.34C103.069 39.7667 103.235 39.1133 103.235 38.38V35.56C102.609 36.44 101.822 37.1533 100.875 37.7C99.9286 38.2467 98.8353 38.52 97.5953 38.52C96.1553 38.52 94.8086 38.2467 93.5553 37.7C92.302 37.1533 91.1953 36.4 90.2353 35.44C89.2886 34.4667 88.542 33.3467 87.9953 32.08C87.462 30.8133 87.1953 29.4533 87.1953 28C87.1953 26.5467 87.462 25.1867 87.9953 23.92C88.542 22.6533 89.2886 21.54 90.2353 20.58C91.1953 19.6067 92.302 18.8467 93.5553 18.3C94.8086 17.7533 96.1553 17.48 97.5953 17.48C98.8353 17.48 99.9286 17.7533 100.875 18.3C101.822 18.8333 102.609 19.54 103.235 20.42V18ZM97.6553 33.82C98.682 33.82 99.5886 33.56 100.375 33.04C101.175 32.5067 101.802 31.8 102.255 30.92C102.709 30.0267 102.935 29.0533 102.935 28C102.935 26.9333 102.702 25.96 102.235 25.08C101.782 24.2 101.155 23.4933 100.355 22.96C99.5686 22.4267 98.6686 22.16 97.6553 22.16C96.6553 22.16 95.742 22.4267 94.9153 22.96C94.0886 23.48 93.4286 24.18 92.9353 25.06C92.442 25.94 92.1953 26.92 92.1953 28C92.1953 29.08 92.442 30.06 92.9353 30.94C93.4286 31.82 94.0886 32.52 94.9153 33.04C95.742 33.56 96.6553 33.82 97.6553 33.82ZM125.898 18H130.778V38.38C130.778 39.82 130.484 41.1267 129.898 42.3C129.311 43.4867 128.511 44.5 127.498 45.34C126.484 46.1933 125.324 46.8467 124.018 47.3C122.711 47.7667 121.338 48 119.898 48C118.498 48 117.151 47.7133 115.858 47.14C114.564 46.5667 113.418 45.78 112.418 44.78C111.431 43.7933 110.678 42.6667 110.158 41.4L114.618 39.38C114.884 40.1133 115.284 40.7533 115.818 41.3C116.364 41.86 116.991 42.2933 117.698 42.6C118.404 42.92 119.138 43.08 119.898 43.08C120.671 43.08 121.411 42.9733 122.118 42.76C122.838 42.5467 123.484 42.2333 124.058 41.82C124.631 41.42 125.078 40.9267 125.398 40.34C125.731 39.7667 125.898 39.1133 125.898 38.38V35.56C125.271 36.44 124.484 37.1533 123.538 37.7C122.591 38.2467 121.498 38.52 120.258 38.52C118.818 38.52 117.471 38.2467 116.218 37.7C114.964 37.1533 113.858 36.4 112.898 35.44C111.951 34.4667 111.204 33.3467 110.658 32.08C110.124 30.8133 109.858 29.4533 109.858 28C109.858 26.5467 110.124 25.1867 110.658 23.92C111.204 22.6533 111.951 21.54 112.898 20.58C113.858 19.6067 114.964 18.8467 116.218 18.3C117.471 17.7533 118.818 17.48 120.258 17.48C121.498 17.48 122.591 17.7533 123.538 18.3C124.484 18.8333 125.271 19.54 125.898 20.42V18ZM120.318 33.82C121.344 33.82 122.251 33.56 123.038 33.04C123.838 32.5067 124.464 31.8 124.918 30.92C125.371 30.0267 125.598 29.0533 125.598 28C125.598 26.9333 125.364 25.96 124.898 25.08C124.444 24.2 123.818 23.4933 123.018 22.96C122.231 22.4267 121.331 22.16 120.318 22.16C119.318 22.16 118.404 22.4267 117.578 22.96C116.751 23.48 116.091 24.18 115.598 25.06C115.104 25.94 114.858 26.92 114.858 28C114.858 29.08 115.104 30.06 115.598 30.94C116.091 31.82 116.751 32.52 117.578 33.04C118.404 33.56 119.318 33.82 120.318 33.82ZM142.52 38.52C140.68 38.52 139 38.0467 137.48 37.1C135.974 36.1533 134.767 34.88 133.86 33.28C132.967 31.68 132.52 29.9133 132.52 27.98C132.52 26.5267 132.78 25.1667 133.3 23.9C133.82 22.62 134.534 21.5 135.44 20.54C136.36 19.5667 137.427 18.8067 138.64 18.26C139.854 17.7133 141.147 17.44 142.52 17.44C144.08 17.44 145.507 17.7733 146.8 18.44C148.107 19.0933 149.214 19.9933 150.12 21.14C151.027 22.2867 151.687 23.5933 152.1 25.06C152.514 26.5267 152.607 28.06 152.38 29.66H137.76C137.947 30.4067 138.254 31.08 138.68 31.68C139.107 32.2667 139.647 32.74 140.3 33.1C140.954 33.4467 141.694 33.6267 142.52 33.64C143.374 33.6533 144.147 33.4533 144.84 33.04C145.547 32.6133 146.134 32.04 146.6 31.32L151.58 32.48C150.767 34.2533 149.554 35.7067 147.94 36.84C146.327 37.96 144.52 38.52 142.52 38.52ZM137.6 26H147.44C147.294 25.2 146.98 24.48 146.5 23.84C146.034 23.1867 145.454 22.6667 144.76 22.28C144.067 21.8933 143.32 21.7 142.52 21.7C141.72 21.7 140.98 21.8933 140.3 22.28C139.62 22.6533 139.04 23.1667 138.56 23.82C138.094 24.46 137.774 25.1867 137.6 26ZM154.254 38L154.234 18H159.114L159.134 19.78C159.814 19.06 160.628 18.4933 161.574 18.08C162.521 17.6533 163.541 17.44 164.634 17.44C165.368 17.44 166.101 17.5467 166.834 17.76L164.914 22.68C164.408 22.48 163.901 22.38 163.394 22.38C162.608 22.38 161.888 22.5733 161.234 22.96C160.594 23.3333 160.081 23.8467 159.694 24.5C159.321 25.14 159.134 25.8533 159.134 26.64V38H154.254Z" fill="#333333"/>
<rect x="20" y="3" width="28" height="28" rx="5" transform="rotate(45 20 3)" fill="#BDBDBD"/>
<path d="M32.7279 28.4558C32.7275 25.6318 31.7879 22.8881 30.057 20.6566C28.3261 18.4252 25.9022 16.8328 23.167 16.1301C20.4317 15.4274 17.5404 15.6544 14.9483 16.7752C12.3562 17.8961 10.2105 19.8472 8.84899 22.3214C7.48746 24.7956 6.98745 27.6523 7.42768 30.4418C7.86791 33.2314 9.22337 35.7953 11.2807 37.7299C13.338 39.6645 15.9803 40.86 18.7916 41.1282C21.6029 41.3963 24.4235 40.7218 26.8094 39.2109L32.7279 41.1838L30.7551 35.2653C32.0474 33.2295 32.7318 30.8672 32.7279 28.4558Z" fill="#333333" stroke="#333333" stroke-width="2" stroke-linecap="round" stroke-linejoin="round"/>
</svg>
