<svg width="40" height="43" viewBox="0 0 40 43" fill="none" xmlns="http://www.w3.org/2000/svg">
<rect x="20" width="28" height="28" rx="5" transform="rotate(45 20 0)" fill="#BDBDBD"/>
<path d="M32.7279 25.4558C32.7275 22.6318 31.7879 19.8881 30.057 17.6566C28.3261 15.4252 25.9022 13.8328 23.167 13.1301C20.4317 12.4274 17.5404 12.6544 14.9483 13.7752C12.3562 14.8961 10.2105 16.8472 8.84899 19.3214C7.48746 21.7956 6.98745 24.6523 7.42768 27.4418C7.86791 30.2314 9.22337 32.7953 11.2807 34.7299C13.338 36.6645 15.9803 37.86 18.7916 38.1282C21.6029 38.3963 24.4235 37.7218 26.8094 36.2109L32.7279 38.1838L30.7551 32.2653C32.0474 30.2295 32.7318 27.8672 32.7279 25.4558Z" fill="#333333" stroke="#333333" stroke-width="2" stroke-linecap="round" stroke-linejoin="round"/>
</svg>
